<?xml version="1.0" encoding="iso-8859-1"?>
<!-- Generator: Adobe Illustrator 19.0.0, SVG Export Plug-In . SVG Version: 6.00 Build 0)  -->
<svg version="1.1" id="Capa_1" xmlns="http://www.w3.org/2000/svg" xmlns:xlink="http://www.w3.org/1999/xlink" x="0px" y="0px"
	 viewBox="0 0 450.56 450.56" style="enable-background:new 0 0 450.56 450.56;" xml:space="preserve">
<path style="fill:#FFFFFF;" d="M34.133,300.373h81.92v122.914c0,3.751-3.113,6.793-6.844,6.793H40.977
	c-3.779,0-6.844-3.079-6.844-6.793V300.373z"/>
<path style="fill:#602F75;" d="M109.206,436.907H40.974c-7.533,0-13.667-6.11-13.667-13.616V300.373
	c0-3.768,3.055-6.827,6.827-6.827h81.92c3.772,0,6.827,3.058,6.827,6.827v122.918C122.88,430.797,116.746,436.907,109.206,436.907z
	 M40.96,307.2v116.091l68.246-0.038l0.02-116.053H40.96z"/>
<path style="fill:#FFFFFF;" d="M341.333,300.373h81.92v122.914c0,3.751-3.113,6.793-6.844,6.793h-68.233
	c-3.779,0-6.844-3.079-6.844-6.793V300.373z"/>
<path style="fill:#602F75;" d="M416.406,436.907h-68.233c-7.533,0-13.667-6.11-13.667-13.616V300.373
	c0-3.768,3.055-6.827,6.827-6.827h81.92c3.772,0,6.827,3.058,6.827,6.827v122.918C430.08,430.797,423.946,436.907,416.406,436.907z
	 M348.16,307.2v116.091l68.246-0.038l0.02-116.053H348.16z"/>
<path style="fill:#FFFFFF;" d="M183.204,144.541c12.646-0.72,27.191-1.181,43.694-1.181c75.093,0,109.722,9.557,109.722,9.557
	c11.039,2.263,21.914,13.087,24.279,24.132l16.186,75.537H76.711l16.186-75.537c2.372-11.066,13.274-22.019,24.381-24.149
	c0,0,1.471-0.406,4.471-1.051"/>
<path style="fill:#602F75;" d="M377.088,259.413H76.715c-2.062,0-4.014-0.928-5.308-2.533c-1.3-1.604-1.799-3.707-1.365-5.724
	l16.186-75.537c2.959-13.838,15.981-26.733,29.672-29.406c0.068-0.031,1.635-0.44,4.413-1.041c3.721-0.785,7.325,1.553,8.113,5.233
	c0.792,3.686-1.546,7.322-5.233,8.113c-2.639,0.57-3.994,0.932-4.106,0.963c-8.827,1.713-17.702,10.53-19.514,18.992L85.159,245.76
	H368.64l-14.415-67.28c-1.792-8.349-10.66-17.169-18.982-18.876c-0.771-0.198-35.345-9.417-108.343-9.417
	c-15.107,0-29.679,0.393-43.312,1.171c-3.833,0.188-6.987-2.662-7.199-6.431c-0.212-3.765,2.659-6.987,6.427-7.202
	c13.882-0.792,28.716-1.191,44.083-1.191c75.155,0,110.087,9.404,111.534,9.803c13.22,2.693,26.214,15.602,29.14,29.283
	l16.186,75.537c0.434,2.017-0.068,4.12-1.365,5.724C381.099,258.485,379.146,259.413,377.088,259.413z"/>
<g>
	<circle style="fill:#00E7FF;" cx="225.28" cy="102.4" r="81.92"/>
	<path style="fill:#00E7FF;" d="M225.28,191.147c-48.934,0-88.747-39.81-88.747-88.747s39.813-88.747,88.747-88.747
		s88.747,39.81,88.747,88.747S274.214,191.147,225.28,191.147z M225.28,27.307c-41.407,0-75.093,33.686-75.093,75.093
		s33.686,75.093,75.093,75.093s75.093-33.686,75.093-75.093S266.687,27.307,225.28,27.307z"/>
</g>
<path style="fill:#FFFFFF;" d="M382.293,216.146c0-8.165,5.891-13.012,13.179-10.817l48.261,14.531v11.134
	c0,8.154-6.117,14.766-13.636,14.766h-47.804V216.146z"/>
<path style="fill:#602F75;" d="M430.1,252.587h-47.807c-3.772,0-6.827-3.058-6.827-6.827v-29.618c0-6.274,2.533-11.752,6.953-15.039
	c4.154-3.086,9.632-3.936,15.019-2.314l48.261,14.534c2.888,0.87,4.861,3.523,4.861,6.537v11.134
	C450.56,242.9,441.382,252.587,430.1,252.587z M389.12,238.933h40.98c3.755,0,6.806-3.564,6.806-7.939v-6.059l-43.401-13.07
	c-0.874-0.263-2.079-0.44-2.939,0.201c-0.908,0.672-1.447,2.198-1.447,4.079V238.933z"/>
<path style="fill:#FFFFFF;" d="M68.267,216.146c0-8.165-5.891-13.012-13.182-10.817L6.827,219.86v11.134
	c0,8.154,6.117,14.766,13.636,14.766h47.804V216.146z"/>
<path style="fill:#602F75;" d="M68.267,252.587H20.46C9.178,252.587,0,242.9,0,230.994V219.86c0-3.014,1.973-5.666,4.861-6.537
	l48.261-14.534c5.386-1.625,10.868-0.775,15.019,2.314c4.42,3.287,6.953,8.765,6.953,15.039v29.618
	C75.093,249.528,72.038,252.587,68.267,252.587z M13.653,224.932v6.059c0,4.379,3.055,7.943,6.806,7.943h40.98v-22.791
	c0-1.884-0.539-3.407-1.447-4.079c-0.853-0.642-2.072-0.464-2.939-0.201L13.653,224.932z"/>
<path style="fill:#EA3457;" d="M34.331,298.977c-2.724-33.161,22.781-60.044,56.911-60.044h274.903
	c34.154,0,59.634,26.88,56.911,60.044l-6.072,73.902c-1.512,18.422-17.978,31.614-36.905,29.686c0,0-58.61-7.95-151.385-7.95
	s-151.467,7.956-151.467,7.956c-18.825,2.021-35.314-11.336-36.823-29.693L34.331,298.977z"/>
<path style="fill:#602F75;" d="M73.465,409.586c-9.554,0-18.528-3.198-25.795-9.199c-8.199-6.786-13.199-16.357-14.073-26.952
	l-6.072-73.895c-1.447-17.661,4.195-34.376,15.886-47.073c12.097-13.131,29.082-20.361,47.828-20.361h274.906
	c18.753,0,35.741,7.226,47.834,20.35c11.694,12.694,17.326,29.413,15.879,47.08l-6.072,73.899
	c-0.867,10.54-5.82,20.064-13.933,26.812c-8.441,7.018-19.248,10.26-30.467,9.103c-0.806-0.102-59.525-7.912-150.692-7.912
	s-149.968,7.817-150.552,7.892C76.575,409.504,75.015,409.586,73.465,409.586z M91.238,245.76c-14.886,0-28.307,5.666-37.786,15.954
	c-9.079,9.858-13.452,22.893-12.312,36.704l0,0l6.072,73.899c0.56,6.898,3.82,13.131,9.168,17.551
	c5.574,4.611,12.708,6.7,20.122,5.915c0.399-0.058,60.027-7.997,152.194-7.997s151.712,7.933,152.306,8.014
	c7.308,0.724,14.527-1.396,20.122-6.045c5.28-4.39,8.492-10.581,9.052-17.435l6.072-73.899c1.14-13.817-3.232-26.856-12.312-36.71
	c-9.479-10.288-22.897-15.95-37.789-15.95H91.238z"/>
<path style="fill:#FFFFFF;" d="M163.84,334.517c0-11.319,9.236-20.49,20.429-20.49h82.022c11.284,0,20.429,9.141,20.429,20.49
	v13.629c0,11.319-9.236,20.49-20.429,20.49h-82.022c-11.281,0.003-20.429-9.138-20.429-20.487V334.517z"/>
<g>
	<path style="fill:#602F75;" d="M266.295,375.467h-82.029c-15.025,0-27.252-12.257-27.252-27.32v-13.629
		c0-15.063,12.227-27.317,27.252-27.317h82.026c15.026,0,27.252,12.254,27.252,27.317v13.629
		C293.547,363.209,281.32,375.467,266.295,375.467z M184.265,320.853c-7.499,0-13.599,6.13-13.599,13.664v13.629
		c0,7.537,6.1,13.667,13.599,13.667h82.026c7.499,0,13.599-6.13,13.599-13.667v-13.629c0-7.533-6.1-13.664-13.599-13.664
		L184.265,320.853L184.265,320.853z"/>
	<g>
		<rect x="68.267" y="361.813" style="fill:#602F75;" width="75.093" height="13.653"/>
		<rect x="314.027" y="361.813" style="fill:#602F75;" width="75.093" height="13.653"/>
	</g>
</g>
<path style="fill:#FFE600;" d="M54.804,312.207c-1.27-7.83,3.888-13.022,11.503-11.599l49.596,9.274
	c7.622,1.427,13.804,8.987,13.804,17.015c0,7.974-6.229,14.435-14.032,14.435H73.557c-7.752,0-15.07-6.39-16.333-14.179
	L54.804,312.207z"/>
<path style="fill:#602F75;" d="M115.674,348.16H73.561c-11.134,0-21.265-8.748-23.074-19.917l-2.42-14.94
	c-0.973-6.018,0.652-11.609,4.478-15.343c3.755-3.669,9.233-5.147,15.019-4.058l49.592,9.271
	c10.868,2.034,19.374,12.455,19.374,23.726C136.533,338.62,127.174,348.16,115.674,348.16z M63.86,307.203
	c-0.785,0-1.42,0.181-1.775,0.526c-0.58,0.567-0.785,1.864-0.539,3.379c0,0.003,0,0.003,0,0.007l2.42,14.947
	c0.727,4.495,5.205,8.445,9.595,8.445h42.114c3.973,0,7.206-3.413,7.206-7.608c0-4.669-3.847-9.486-8.226-10.308l-49.599-9.271
	C64.628,307.241,64.225,307.203,63.86,307.203z"/>
<path style="fill:#FFE600;" d="M395.756,312.207c1.27-7.83-3.888-13.022-11.503-11.599l-49.596,9.274
	c-7.622,1.427-13.8,8.987-13.8,17.015c0,7.974,6.229,14.435,14.032,14.435h42.114c7.752,0,15.07-6.39,16.333-14.179L395.756,312.207
	z"/>
<path style="fill:#602F75;" d="M376.999,348.16h-42.114c-11.5,0-20.859-9.54-20.859-21.262c0-11.271,8.506-21.692,19.374-23.726
	L383,293.902c5.765-1.085,11.261,0.396,15.012,4.058c3.826,3.734,5.454,9.325,4.478,15.343l-2.42,14.94
	C398.254,339.415,388.12,348.16,376.999,348.16z M386.7,307.203c-0.365,0-0.768,0.038-1.188,0.116l-49.606,9.271
	c-4.379,0.819-8.226,5.635-8.226,10.308c0,4.195,3.232,7.608,7.206,7.608h42.114c4.379,0,8.868-3.946,9.595-8.451l2.42-14.94
	c0-0.003,0-0.003,0-0.007c0.246-1.516,0.041-2.813-0.539-3.379C388.12,307.384,387.485,307.203,386.7,307.203z"/>
<path style="fill:#FFFFFF;" d="M191.147,238.92c0-7.533,6.059-13.64,13.65-13.64h40.967c7.537,0,13.65,6.134,13.65,13.64v27.32
	h-68.267V238.92z"/>
<path style="fill:#602F75;" d="M259.413,273.067h-68.267c-3.772,0-6.827-3.058-6.827-6.827v-27.32
	c0-11.288,9.185-20.466,20.48-20.466h40.96c11.295,0,20.48,9.178,20.48,20.466v27.32
	C266.24,270.008,263.185,273.067,259.413,273.067z M197.973,259.413h54.613V238.92c0-3.755-3.058-6.813-6.827-6.813H204.8
	c-3.826,0-6.827,2.993-6.827,6.813V259.413z"/>
<circle style="fill:#FFFFFF;" cx="225.28" cy="136.533" r="13.653"/>
<g>
	<path style="fill:#602F75;" d="M225.28,157.013c-11.295,0-20.48-9.185-20.48-20.48s9.185-20.48,20.48-20.48
		c11.295,0,20.48,9.185,20.48,20.48S236.575,157.013,225.28,157.013z M225.28,129.707c-3.768,0-6.827,3.062-6.827,6.827
		s3.058,6.827,6.827,6.827c3.768,0,6.827-3.062,6.827-6.827S229.048,129.707,225.28,129.707z"/>
	<path style="fill:#602F75;" d="M170.667,88.747c-1.86,0-3.714-0.758-5.059-2.243c-2.533-2.796-2.321-7.113,0.481-9.643
		c15.838-14.35,36.857-22.248,59.191-22.248c22.32,0,43.346,7.898,59.194,22.248c2.792,2.529,3.014,6.847,0.481,9.639
		c-2.533,2.796-6.847,3.011-9.639,0.481c-13.336-12.07-31.102-18.715-50.036-18.715s-36.707,6.646-50.033,18.712
		C173.94,88.163,172.302,88.747,170.667,88.747z"/>
	<path style="fill:#602F75;" d="M266.24,116.053c-1.601,0-3.205-0.56-4.506-1.696c-8.783-7.711-20.514-11.957-33.041-11.957
		c-12.527,0-24.259,4.246-33.041,11.957c-2.84,2.485-7.154,2.205-9.632-0.628c-2.492-2.83-2.212-7.144,0.621-9.632
		c11.271-9.899,26.204-15.35,42.052-15.35s30.781,5.451,42.052,15.35c2.833,2.488,3.113,6.803,0.621,9.632
		C270.019,115.268,268.134,116.053,266.24,116.053z"/>
</g>
<g>
</g>
<g>
</g>
<g>
</g>
<g>
</g>
<g>
</g>
<g>
</g>
<g>
</g>
<g>
</g>
<g>
</g>
<g>
</g>
<g>
</g>
<g>
</g>
<g>
</g>
<g>
</g>
<g>
</g>
</svg>
