<svg height="512pt" viewBox="-60 0 512 512" width="512pt" xmlns="http://www.w3.org/2000/svg"><path d="m281.371094 191.519531 26.886718-100.335937c.757813-2.828125-.9375-5.761719-3.765624-6.519532l-71.070313-19.042968v125.898437zm0 0" fill="#368c0e"/><path d="m277.066406 102.398438-42.027344-11.261719c-.550781-.144531-1.105468-.117188-1.613281.03125v70.820312c1.632813.144531 3.277344.421875 4.917969.863281 10.195312 2.734376 17.609375 10.625 20.242188 20.109376l20.601562-76.886719c.425781-1.59375-.53125-3.25-2.121094-3.675781zm0 0" fill="#5dc647"/><path d="m259.636719 191.519531c.417969-13.046875-8.140625-25.140625-21.292969-28.667969-1.640625-.4375-3.285156-.71875-4.917969-.863281v29.53125zm0 0" fill="#fff"/><path d="m140.65625 68.886719 70.804688 122.632812h21.960937v-152.902343c0-2.925782-2.394531-5.320313-5.324219-5.320313h-87.320312c-2.925782 0-5.324219 2.394531-5.324219 5.320313v27.648437c2.039063-.222656 4.117187.738281 5.203125 2.621094zm0 0" fill="#368c0e"/><path d="m184.4375 125.941406c10.542969 0 19.753906 5.671875 24.757812 14.128906v-79.546874c0-1.648438-1.351562-3-3-3h-43.511718c-1.648438 0-3 1.351562-3 3v41.316406l14.914062 25.832031c3.070313-1.121094 6.382813-1.730469 9.839844-1.730469zm0 0" fill="#5dc647"/><path d="m202.914062 176.71875c6.28125-5.273438 10.277344-13.183594 10.277344-22.027344 0-15.878906-12.871094-28.75-28.753906-28.75-3.457031 0-6.769531.609375-9.839844 1.730469zm0 0" fill="#fff"/><path d="m98.335938 191.519531h113.125l-70.804688-122.632812c-1.464844-2.539063-4.734375-3.414063-7.269531-1.949219l-75.625 43.660156c-2.535157 1.464844-3.410157 4.738282-1.945313 7.269532zm0 0" fill="#368c0e"/><path d="m141.894531 169c9.128907-5.269531 19.945313-4.960938 28.507813-.140625l-39.773438-68.890625c-.824218-1.429688-2.667968-1.921875-4.097656-1.097656l-37.683594 21.757812c-1.425781.824219-1.921875 2.667969-1.097656 4.097656l38.566406 66.792969h1.308594c.757812-9.066406 5.796875-17.625 14.269531-22.519531zm0 0" fill="#5dc647"/><path d="m184.925781 191.519531c-.335937-4.101562-1.558593-8.195312-3.753906-11.996093-7.941406-13.75-25.523437-18.464844-39.277344-10.523438-8.472656 4.894531-13.507812 13.453125-14.269531 22.519531zm0 0" fill="#fff"/><path d="m67.589844 70.425781c-2.398438 0-4.484375-1.636719-5.054688-3.960937-4-16.347656-6.097656-18.445313-22.445312-22.449219-2.328125-.570313-3.964844-2.65625-3.964844-5.050781 0-2.398438 1.636719-4.484375 3.964844-5.054688 16.347656-4.003906 18.445312-6.101562 22.445312-22.445312.570313-2.328125 2.65625-3.964844 5.054688-3.964844 2.394531 0 4.480468 1.636719 5.050781 3.964844 4.003906 16.34375 6.101563 18.441406 22.449219 22.445312 2.328125.570313 3.960937 2.65625 3.960937 5.054688 0 2.394531-1.636719 4.480468-3.960937 5.050781-16.347656 4.003906-18.445313 6.101563-22.449219 22.449219-.570313 2.324218-2.65625 3.960937-5.050781 3.960937zm0 0" fill="#ffc502"/><path d="m354.527344 163.925781c-2.300782 0-4.308594-1.570312-4.855469-3.808593-3.847656-15.714844-5.863281-17.730469-21.578125-21.578126-2.234375-.546874-3.808594-2.554687-3.808594-4.855468 0-2.304688 1.574219-4.308594 3.808594-4.855469 15.714844-3.847656 17.730469-5.863281 21.578125-21.578125.546875-2.238281 2.554687-3.808594 4.855469-3.808594 2.304687 0 4.308594 1.570313 4.859375 3.808594 3.847656 15.714844 5.863281 17.730469 21.574219 21.578125 2.238281.546875 3.8125 2.550781 3.8125 4.855469 0 2.304687-1.574219 4.308594-3.8125 4.855468-15.710938 3.847657-17.726563 5.863282-21.574219 21.578126-.550781 2.238281-2.554688 3.808593-4.859375 3.808593zm0 0" fill="#fcdb67"/><path d="m25.28125 242.5v257c0 2.75 2.25 5 5 5h302.980469c2.75 0 5-2.25 5-5v-257zm0 0" fill="#c6a07d"/><path d="m356.046875 237.5c0 2.75-2.25 5-5 5h-338.546875c-2.75 0-5-2.25-5-5v-40.980469c0-2.75 2.25-5 5-5h338.546875c2.75 0 5 2.25 5 5zm0 0" fill="#b2762f"/><path d="m181.773438 414.746094c-2.058594 0-4.121094-.785156-5.691407-2.355469l-67.40625-67.410156c-15.527343-15.527344-15.527343-40.789063 0-56.316407 7.519531-7.519531 17.519531-11.664062 28.160157-11.664062 10.632812 0 20.632812 4.144531 28.15625 11.664062l16.78125 16.78125 16.78125-16.78125c7.519531-7.519531 17.519531-11.664062 28.15625-11.664062 10.636718 0 20.636718 4.144531 28.160156 11.664062 15.523437 15.527344 15.523437 40.789063 0 56.316407l-67.410156 67.410156c-1.570313 1.570313-3.632813 2.355469-5.6875 2.355469zm0 0" fill="#c0272d"/><path d="m257.359375 455.25c0 8.148438-6.601563 14.75-14.75 14.75h-121.675781c-8.144532 0-14.746094-6.601562-14.746094-14.75 0-8.144531 6.601562-14.746094 14.746094-14.746094h121.675781c8.148437 0 14.75 6.601563 14.75 14.746094zm0 0" fill="#fff"/><path d="m184.4375 103.558594c1.976562 0 3.910156-.796875 5.308594-2.199219 1.390625-1.390625 2.191406-3.332031 2.191406-5.300781 0-1.980469-.800781-3.910156-2.191406-5.308594-1.398438-1.390625-3.332032-2.191406-5.308594-2.191406-1.972656 0-3.902344.800781-5.300781 2.191406-1.402344 1.398438-2.199219 3.328125-2.199219 5.308594 0 1.972656.796875 3.910156 2.199219 5.300781 1.398437 1.402344 3.328125 2.199219 5.300781 2.199219zm0 0"/><path d="m134.457031 143.121094c0-1.972656-.800781-3.910156-2.199219-5.300782-1.402343-1.398437-3.332031-2.199218-5.300781-2.199218-1.980469 0-3.910156.800781-5.3125 2.199218-1.386719 1.390626-2.1875 3.328126-2.1875 5.300782 0 1.980468.800781 3.910156 2.1875 5.300781 1.402344 1.398437 3.332031 2.199219 5.3125 2.199219 1.96875 0 3.898438-.800782 5.300781-2.199219 1.398438-1.390625 2.199219-3.320313 2.199219-5.300781zm0 0"/><path d="m38.304688 51.300781c13.613281 3.332031 13.613281 3.332031 16.949218 16.945313 1.394532 5.699218 6.464844 9.683594 12.335938 9.683594 5.863281 0 10.9375-3.980469 12.335937-9.683594 3.335938-13.609375 3.335938-13.609375 16.945313-16.945313 5.699218-1.394531 9.679687-6.46875 9.679687-12.335937 0-5.867188-3.980469-10.941406-9.679687-12.335938-13.613282-3.332031-13.613282-3.332031-16.945313-16.949218-1.398437-5.699219-6.472656-9.679688-12.335937-9.679688-5.871094 0-10.941406 3.980469-12.335938 9.679688-3.335937 13.613281-3.335937 13.613281-16.949218 16.949218-5.699219 1.394532-9.679688 6.464844-9.679688 12.335938 0 5.867187 3.980469 10.9375 9.679688 12.335937zm29.285156-30.082031c3.355468 10.121094 7.621094 14.386719 17.742187 17.746094-10.121093 3.355468-14.386719 7.621094-17.742187 17.742187-3.359375-10.125-7.621094-14.386719-17.746094-17.742187 10.125-3.359375 14.386719-7.625 17.746094-17.746094zm0 0"/><path d="m382.746094 121.542969c-12.914063-3.160157-12.914063-3.160157-16.078125-16.078125-1.375-5.609375-6.367188-9.523438-12.140625-9.523438-5.773438 0-10.765625 3.917969-12.140625 9.527344-3.160157 12.914062-3.160157 12.914062-16.074219 16.074219-5.609375 1.375-9.527344 6.367187-9.527344 12.144531 0 5.773438 3.917969 10.765625 9.527344 12.136719 12.914062 3.164062 12.914062 3.164062 16.074219 16.078125 1.375 5.609375 6.367187 9.527344 12.140625 9.527344 5.773437 0 10.765625-3.917969 12.140625-9.527344 3.164062-12.914063 3.164062-12.914063 16.074219-16.078125 5.609374-1.371094 9.527343-6.363281 9.527343-12.140625.003907-5.777344-3.917969-10.769532-9.523437-12.140625zm-28.21875 28.285156c-3.125-8.988281-7.152344-13.019531-16.140625-16.144531 8.992187-3.125 13.015625-7.152344 16.140625-16.144532 3.125 8.992188 7.152344 13.019532 16.144531 16.144532-8.992187 3.125-13.019531 7.152344-16.144531 16.144531zm0 0"/><path d="m351.046875 184.019531h-59.898437l24.355468-90.898437c1.828125-6.828125-2.242187-13.871094-9.070312-15.703125l-65.507813-17.554688v-21.246093c0-7.070313-5.753906-12.820313-12.824219-12.820313h-87.320312c-7.070312 0-12.824219 5.75-12.824219 12.820313v22.792968l-73.941406 42.691406c-6.125 3.535157-8.230469 11.394532-4.695313 17.519532l36.027344 62.398437h-72.847656c-6.894531 0-12.5 5.609375-12.5 12.5v40.980469c0 6.894531 5.605469 12.5 12.5 12.5h5.28125v249.5c0 6.894531 5.609375 12.5 12.5 12.5h302.980469c6.890625 0 12.5-5.605469 12.5-12.5v-165.5c0-4.140625-3.359375-7.5-7.5-7.5-4.144531 0-7.5 3.359375-7.5 7.5v163h-297.980469v-247h44.355469c4.140625 0 7.5-3.359375 7.5-7.5 0-4.144531-3.359375-7.5-7.5-7.5h-62.136719v-35.980469h333.546875v35.980469h-235.410156c-4.144531 0-7.5 3.355469-7.5 7.5 0 4.140625 3.355469 7.5 7.5 7.5h217.625v48c0 4.140625 3.355469 7.5 7.5 7.5 4.140625 0 7.5-3.359375 7.5-7.5v-48h5.28125c6.894531 0 12.5-5.609375 12.5-12.5v-40.980469c.003906-6.890625-5.605469-12.5-12.496094-12.5zm-50.597656-92.675781-24.832031 92.675781h-9.058594c-.066406-.339843-.148438-.675781-.222656-1.011719l20.09375-74.996093c.726562-2.703125.351562-5.53125-1.050782-7.964844-1.40625-2.429687-3.667968-4.167969-6.375-4.894531l-38.078125-10.203125v-9.554688zm-44.625 72.9375c-4.164063-3.953125-9.242188-6.859375-14.898438-8.484375v-16.371094c1.375 1.3125 3.246094 2.0625 5.148438 2.0625 1.972656 0 3.910156-.796875 5.300781-2.199219 1.402344-1.398437 2.199219-3.328124 2.199219-5.300781 0-1.976562-.796875-3.910156-2.199219-5.308593-1.390625-1.390626-3.328125-2.191407-5.300781-2.191407-1.902344 0-3.773438.753907-5.148438 2.058594v-28.066406l29.851563 8zm-14.898438 7.621094c3.464844 1.847656 6.367188 4.609375 8.378907 8.09375.746093 1.292968 1.339843 2.640625 1.792968 4.023437h-10.171875zm-15-131.105469v143.222656h-9.230469v-12.820312c2.546876-4.957031 3.996094-10.5625 3.996094-16.507813 0-5.945312-1.449218-11.554687-3.996094-16.511718v-77.65625c0-5.789063-4.710937-10.5-10.5-10.5h-43.511718c-5.789063 0-10.5 4.710937-10.5 10.5v13.328124l-5.03125-8.71875c-1.039063-1.800781-2.492188-3.285156-4.195313-4.371093v-19.964844zm-24.230469 82.019531c-5.132812-2.789062-11.011718-4.375-17.257812-4.375-2.113281 0-4.179688.195313-6.195312.542969l-11.058594-19.152344v-34.808593h34.511718zm3.996094 31.875c0 3.078125-.664062 5.996094-1.847656 8.636719l-17.1875-29.769531c10.679688 1.113281 19.035156 10.164062 19.035156 21.132812zm-142.292968-38.6875 71.851562-41.484375 63.21875 109.5h-7.320312c-.808594-2.847656-1.964844-5.617187-3.484376-8.246093-2.90625-5.039063-6.953124-9.203126-11.699218-12.277344l-38.84375-67.277344c-1.867188-3.234375-5.355469-5.246094-9.101563-5.246094-1.835937 0-3.648437.484375-5.242187 1.40625l-37.675782 21.753906c-2.429687 1.398438-4.164062 3.664063-4.890624 6.375-.730469 2.714844-.355469 5.542969 1.042968 7.96875l32.070313 55.542969h-10.660157zm61.996093 58.921875-28.898437-50.054687 29.886718-17.253906 28.902344 50.058593c-6.003906.164063-11.910156 1.8125-17.140625 4.832031-5.40625 3.117188-9.699219 7.433594-12.75 12.417969zm20.25.570313c3.234375-1.867188 6.898438-2.851563 10.601563-2.851563 7.582031 0 14.644531 4.070313 18.429687 10.628907.140625.242187.25.5.382813.746093h-37.570313c1.796875-3.445312 4.546875-6.441406 8.15625-8.523437zm0 0"/><path d="m260.175781 283.359375c-8.941406-8.9375-20.824219-13.859375-33.464843-13.859375-12.636719 0-24.519532 4.921875-33.460938 13.859375l-11.476562 11.480469-11.480469-11.480469c-8.9375-8.9375-20.820313-13.859375-33.457031-13.859375-12.644532 0-24.527344 4.921875-33.464844 13.859375-18.449219 18.453125-18.449219 48.472656 0 66.921875l67.410156 67.414062c2.9375 2.933594 6.839844 4.550782 10.992188 4.550782 4.152343 0 8.054687-1.617188 10.992187-4.554688l67.410156-67.40625c18.449219-18.453125 18.449219-48.472656 0-66.925781zm-10.609375 56.316406-67.410156 67.414063c-.105469.101562-.234375.15625-.382812.15625-.226563 0-.347657-.121094-.386719-.160156l-67.40625-67.410157c-12.601563-12.601562-12.601563-33.105469 0-45.707031 6.101562-6.105469 14.21875-9.46875 22.855469-9.46875 8.632812 0 16.75 3.363281 22.851562 9.46875l16.78125 16.777344c2.929688 2.929687 7.679688 2.929687 10.609375 0l16.78125-16.777344c6.105469-6.105469 14.222656-9.46875 22.855469-9.46875 8.632812 0 16.75 3.359375 22.855468 9.464844 12.597657 12.605468 12.597657 33.109375-.003906 45.710937zm0 0"/><path d="m152.636719 316.867188c-4.140625 0-7.5 3.355468-7.5 7.5v6.855468c0 4.140625 3.359375 7.5 7.5 7.5s7.5-3.359375 7.5-7.5v-6.855468c0-4.144532-3.359375-7.5-7.5-7.5zm0 0"/><path d="m210.90625 316.867188c-4.140625 0-7.5 3.355468-7.5 7.5v6.855468c0 4.140625 3.359375 7.5 7.5 7.5 4.144531 0 7.5-3.359375 7.5-7.5v-6.855468c0-4.144532-3.355469-7.5-7.5-7.5zm0 0"/><path d="m195.484375 348.289062c-4.140625 0-7.5 3.355469-7.5 7.5 0 3.421876-2.789063 6.207032-6.210937 6.207032-3.425782 0-6.210938-2.785156-6.210938-6.207032 0-4.144531-3.359375-7.5-7.5-7.5-4.144531 0-7.5 3.355469-7.5 7.5 0 11.695313 9.511719 21.207032 21.210938 21.207032 11.695312 0 21.210937-9.511719 21.210937-21.207032 0-4.144531-3.359375-7.5-7.5-7.5zm0 0"/><path d="m242.609375 462.5h-52.472656c-4.144531 0-7.5 3.359375-7.5 7.5s3.355469 7.5 7.5 7.5h52.472656c12.269531 0 22.25-9.980469 22.25-22.25 0-12.265625-9.980469-22.246094-22.25-22.246094h-121.675781c-12.269532 0-22.246094 9.976563-22.246094 22.246094s9.976562 22.25 22.246094 22.25h33.203125c4.140625 0 7.5-3.359375 7.5-7.5s-3.359375-7.5-7.5-7.5h-33.203125c-3.996094 0-7.246094-3.25-7.246094-7.25 0-3.996094 3.25-7.246094 7.246094-7.246094h121.675781c3.996094 0 7.25 3.25 7.25 7.246094 0 4-3.253906 7.25-7.25 7.25zm0 0"/></svg>