<?xml version="1.0" encoding="iso-8859-1"?>
<!-- Generator: Adobe Illustrator 21.0.0, SVG Export Plug-In . SVG Version: 6.00 Build 0)  -->
<svg xmlns="http://www.w3.org/2000/svg" xmlns:xlink="http://www.w3.org/1999/xlink" version="1.1" id="Capa_1" x="0px" y="0px" viewBox="0 0 512 512" style="enable-background:new 0 0 512 512;" xml:space="preserve" width="512" height="512">
<g>
	<path style="fill:#BBDCFF;" d="M451,376v121c0,8.399-6.599,15-15,15h-45l-15-30l-15,30H151l-15-30l-15,30H76   c-8.401,0-15-6.601-15-15V376c0-24.901,20.099-45,45-45h300C430.901,331,451,351.099,451,376z"/>
	<path style="fill:#9ABADB;" d="M451,376v121c0,8.399-6.599,15-15,15h-45l-15-30l-15,30H256V331h150   C430.901,331,451,351.099,451,376z"/>
	<path style="fill:#E0F4FF;" d="M421,333.699l-59.099-3.9l46.8,32.1L263.8,448.9c-2.401,1.5-5.099,2.1-7.8,2.1s-5.4-0.601-7.8-2.1   l-150-90c-4.499-2.701-7.2-7.5-7.2-12.9V166C91,75.099,165.099,0,256,0s165,75.099,165,166V333.699z"/>
	<path style="fill:#BBDCFF;" d="M421,333.699l-59.099-3.9l46.8,32.1L263.8,448.9c-2.401,1.5-5.099,2.1-7.8,2.1V0   c90.901,0,165,75.099,165,166V333.699z"/>
	<path style="fill:#8BAFD1;" d="M421,346v-12.424l-179.048-33.88c-8.027-1.523-15.967,3.809-17.52,11.953   c-1.538,8.13,3.809,15.981,11.953,17.52l172.44,32.629l4.894-2.937C418.231,356.151,421,351.273,421,346z M406,346h0.293H406z"/>
	<path style="fill:#9ABADB;" d="M136,421c-8.284,0-15,6.714-15,15v76h30v-76C151,427.714,144.284,421,136,421z"/>
	<path style="fill:#8BAFD1;" d="M376,421c-8.284,0-15,6.714-15,15v76h30v-76C391,427.714,384.284,421,376,421z"/>
	<path style="fill:#BBDCFF;" d="M361,166v23.699H151V166c0-57.9,47.1-105,105-105S361,108.1,361,166z"/>
	<path style="fill:#9ABADB;" d="M361,166v23.699H256V61C313.9,61,361,108.1,361,166z"/>
	<path style="fill:#FED2A4;" d="M361,189.699V226c0,55.499-45.601,105-105,105c-59.099,0-105-48.6-105-105v-36.301l4.501-4.2   c27.9-27.9,64.199-41.699,100.499-41.699s72.599,13.799,100.499,41.699L361,189.699z"/>
	<path style="fill:#FFBD86;" d="M361,189.699V226c0,55.499-45.601,105-105,105V143.8c36.301,0,72.599,13.799,100.499,41.699   L361,189.699z"/>
	<path style="fill:#DA90F8;" d="M287.8,257.8c-8.399,8.399-19.799,13.2-31.8,13.2c-0.601,0-3.9,0-4.2-0.3   c-1.8,0-2.999-0.3-4.2-0.601c-10.199-1.8-19.499-7.2-26.398-15.3c-5.101-6.599-4.2-15.899,2.098-21.299   c6.301-5.101,15.901-4.2,21,2.1c2.401,2.699,5.4,4.499,8.701,5.099H256c5.099-0.3,8.401-1.8,10.499-4.2c6-5.7,15.3-5.7,21.301,0   C293.8,242.5,293.8,251.8,287.8,257.8z"/>
	<path style="fill:#B760EA;" d="M287.8,236.499c6,6,6,15.3,0,21.301c-8.399,8.399-19.799,13.2-31.8,13.2v-30.3   c5.099-0.3,8.401-1.8,10.499-4.2C272.5,230.799,281.8,230.799,287.8,236.499z"/>
</g>















</svg>
